<svg xmlns="http://www.w3.org/2000/svg" viewBox="0 0 30.73 36"><defs><style>.cls-1{fill:#d9514b;}</style></defs><title>logo-icon</title><g id="Layer_2" data-name="Layer 2"><g id="Layer_1-2" data-name="Layer 1"><path class="cls-1" d="M12.73,23.67a1.17,1.17,0,0,1-1.13-.86A6.84,6.84,0,0,1,11.35,21V15.37A4,4,0,0,1,19,13.66a1.17,1.17,0,0,1-2.12,1,1.67,1.67,0,0,0-3.18.71V21a4.5,4.5,0,0,0,.16,1.19,1.17,1.17,0,0,1-1.13,1.48"/><path class="cls-1" d="M18.2,27.84a6.88,6.88,0,0,1-3.12-.75A1.17,1.17,0,0,1,16.15,25h0a4.51,4.51,0,0,0,6.56-4V15.36A7.35,7.35,0,0,0,15.36,8a1.17,1.17,0,0,1,0-2.34,9.7,9.7,0,0,1,9.69,9.69V21a6.86,6.86,0,0,1-6.85,6.85"/><path class="cls-1" d="M18.2,33.52A12.54,12.54,0,0,1,5.68,21V15.37A9.73,9.73,0,0,1,10.48,7a1.17,1.17,0,0,1,1.18,2h0A7.38,7.38,0,0,0,8,15.36V21A10.19,10.19,0,0,0,18.2,31.18,10.08,10.08,0,0,0,22.89,30,1.17,1.17,0,1,1,24,32.12a12.56,12.56,0,0,1-5.77,1.4"/><path class="cls-1" d="M27,29.38a1.17,1.17,0,0,1-.9-1.92A10.19,10.19,0,0,0,28.38,21V15.36a13.08,13.08,0,0,0-8.45-12.2,20.65,20.65,0,0,0-2.31-.61,16.36,16.36,0,0,0-2.28-.21,13,13,0,0,0-13,13V21A1.17,1.17,0,0,1,0,21V15.36A15.38,15.38,0,0,1,15.36,0,18.75,18.75,0,0,1,18,.25,22.42,22.42,0,0,1,20.72,1a15.45,15.45,0,0,1,10,14.4V21a12.55,12.55,0,0,1-2.86,8,1.18,1.18,0,0,1-.91.43M8.27,36a1.16,1.16,0,0,1-.68-.22A18.31,18.31,0,0,1,.75,26.17,1.17,1.17,0,1,1,3,25.5H3a16,16,0,0,0,6,8.38A1.17,1.17,0,0,1,8.27,36"/></g></g></svg>